<?xml version="1.0" encoding="UTF-8" standalone="no" ?>
<!DOCTYPE svg PUBLIC "-//W3C//DTD SVG 1.1//EN" "http://www.w3.org/Graphics/SVG/1.1/DTD/svg11.dtd">
<svg xmlns="http://www.w3.org/2000/svg" xmlns:xlink="http://www.w3.org/1999/xlink" version="1.1" width="215" height="55" viewBox="0 0 215 55" xml:space="preserve">
<desc>Created with Fabric.js 5.2.4</desc>
<defs>
</defs>
<g transform="matrix(1 0 0 1 107.5 27.5)" id="0a4f9b8f-6243-4e5b-9f9e-bbb0cb10f8a4"  >
<rect style="stroke: none; stroke-width: 1; stroke-dasharray: none; stroke-linecap: butt; stroke-dashoffset: 0; stroke-linejoin: miter; stroke-miterlimit: 4; fill: rgb(255,255,255); fill-rule: nonzero; opacity: 1; visibility: hidden;" vector-effect="non-scaling-stroke"  x="-107.5" y="-27.5" rx="0" ry="0" width="215" height="55" />
</g>
<g transform="matrix(Infinity NaN NaN Infinity 0 0)" id="2e7b1cc9-110f-4942-942f-3f6eb17e1f7a"  >
</g>
<g transform="matrix(1 0 0 1 107.5 27.5)"  >
<g style="" vector-effect="non-scaling-stroke"   >
		<g transform="matrix(0.87 0 0 0.87 -79.54 0.17)"  >
<path style="stroke: none; stroke-width: 1; stroke-dasharray: none; stroke-linecap: butt; stroke-dashoffset: 0; stroke-linejoin: miter; stroke-miterlimit: 4; fill: rgb(244,114,182); fill-rule: nonzero; opacity: 1;" vector-effect="non-scaling-stroke"  transform=" translate(-32, -33.35)" d="M 48.5 41.5 L 49.6 41.9 L 50.300000000000004 40 L 48.300000000000004 39.2 L 47.7 30 L 56 30 L 56 26 L 57 26 L 57 24 L 47.2 24 L 47 22 L 49 22 L 49 18 L 50.5 18 L 52.5 15 L 55.5 15 L 58.3 11.3 C 58.9 11.200000000000001 59.5 11.100000000000001 60.199999999999996 11 L 60.8 10.9 L 62.3 4.800000000000001 L 60.8 5 C 31.4 9.9 3.5 5.1 3.2 5 L 1.7 4.7 L 3.2 10.8 L 3.8 11 C 3.8 11 4.5 11.1 5.699999999999999 11.3 L 8.5 15 L 11.5 15 L 13.5 18 L 15 18 L 15 22 L 16.9 22 L 16.799999999999997 24 L 7 24 L 7 26 L 8 26 L 8 30 L 16.3 30 L 15.600000000000001 39.3 L 13.600000000000001 40.099999999999994 L 14.3 41.99999999999999 L 15.4 41.599999999999994 L 14.1 60 L 2 60 L 2 62 L 62 62 L 62 60 L 49.9 60 L 48.5 41.5 z M 47.9 60 L 44 60 L 43.5 40.7 L 45 40.1 L 46.5 40.7 L 47.9 60 z M 22.5 39.3 L 22.7 29.999999999999996 L 41.099999999999994 29.999999999999996 L 41.3 39.3 L 39.5 40 L 40.2 41.9 L 41.300000000000004 41.4 L 42 60 L 22 60 L 22.5 41.5 L 23.6 42 L 24.3 40.1 L 22.5 39.3 z M 25 18 L 28 18 L 28 24 L 22.9 24 L 22.9 22 L 24.9 22 L 24.9 18 z M 39 18 L 39 22 L 41 22 L 41 24 L 36 24 L 36 18 L 39 18 z M 34 24 L 30 24 L 30 18 L 34 18 L 34 24 z M 22.9 26 L 41.099999999999994 26 L 41.099999999999994 28 L 22.8 28 L 22.9 26 z M 54 26 L 54 28 L 47.5 28 L 47.3 26 L 54 26 z M 47 20 L 44.9 20 L 46.3 38.4 L 45 37.9 L 43.4 38.5 L 43 20 L 41 20 L 41 18 L 47 18 L 47 20 z M 4.3 7.2 C 10.399999999999999 8.1 34.3 11.2 59.599999999999994 7.2 L 59.099999999999994 9.1 C 58.39999999999999 9.2 57.8 9.299999999999999 57.099999999999994 9.4 L 57.099999999999994 9.4 L 57.099999999999994 9.4 C 40.39999999999999 11.8 23.499999999999993 11.8 6.799999999999997 9.4 L 6.799999999999997 9.4 L 6.799999999999997 9.4 C 5.9 9.3 5.2 9.2 4.8 9.1 L 4.3 7.2 z M 12.5 13 L 9.5 13 L 8.5 11.7 C 16.4 12.7 24.3 13.2 32.2 13.2 C 40 13.2 47.7 12.7 55.400000000000006 11.7 L 54.400000000000006 13 L 51.400000000000006 13 L 49.400000000000006 16 L 14.5 16 L 12.5 13 z M 10 28 L 10 26 L 16.6 26 L 16.5 28 L 10 28 z M 19.1 20 L 17 20 L 17 18 L 23 18 L 23 20 L 21 20 L 20.5 38.5 L 19 37.9 L 17.7 38.4 L 19.1 20 z M 17.5 40.7 L 19 40.1 L 20.5 40.7 L 20 60 L 16.1 60 L 17.5 40.7 z" stroke-linecap="round" />
</g>
		<g transform="matrix(0.63 0 0 0.63 32.49 -17.73)"  >
<path style="stroke: none; stroke-width: 1; stroke-dasharray: none; stroke-linecap: butt; stroke-dashoffset: 0; stroke-linejoin: miter; stroke-miterlimit: 4; fill: rgb(244,114,182); fill-rule: nonzero; opacity: 1;" vector-effect="non-scaling-stroke"  transform=" translate(-118.68, -24.98)" d="M 22.6 10.16 L 22.6 28.2 Q 22.6 32.519999999999996 20.720000000000002 35.519999999999996 Q 19.080000000000002 38.12 16.240000000000002 39.48 Q 13.760000000000002 40.68 10.96 40.68 Q 8.280000000000001 40.68 5.5200000000000005 39.76 Q 2.6400000000000006 38.76 0.8000000000000007 37.16 L 3.000000000000001 33.31999999999999 L 3.480000000000001 33.79999999999999 Q 4.120000000000001 34.35999999999999 4.960000000000001 34.83999999999999 Q 6.080000000000001 35.51999999999999 7.440000000000001 35.87999999999999 Q 9.120000000000001 36.359999999999985 11.000000000000002 36.359999999999985 Q 13.040000000000003 36.359999999999985 14.560000000000002 35.47999999999998 Q 15.840000000000002 34.759999999999984 16.720000000000002 33.43999999999998 Q 17.44 32.399999999999984 17.840000000000003 30.999999999999982 Q 18.120000000000005 29.999999999999982 18.240000000000002 28.959999999999983 L 18.28 28.079999999999984 L 18.28 14.559999999999985 L 11.920000000000002 14.559999999999985 L 10.000000000000002 10.159999999999984 L 22.6 10.159999999999984 z M 40.72 13.32 L 39.08 9.64 L 43.879999999999995 9.64 L 58.239999999999995 40 L 53.35999999999999 40 L 51.39999999999999 35.64 L 42.31999999999999 35.64 Q 39.75999999999999 35.64 37.71999999999999 36.12 Q 35.919999999999995 36.559999999999995 34.71999999999999 37.279999999999994 Q 33.63999999999999 37.919999999999995 33.279999999999994 38.599999999999994 L 32.519999999999996 39.99999999999999 L 27.799999999999997 39.99999999999999 z M 43.92 31.240000000000002 L 49.44 31.240000000000002 L 42.92 18.64 L 36.32 32.92 Q 37.2 32.160000000000004 39 31.720000000000002 Q 41.04 31.240000000000002 43.92 31.240000000000002 z M 76.84 40.68 Q 72.64 40.68 69.62 39.22 Q 66.60000000000001 37.76 65.02000000000001 35 Q 63.44000000000001 32.24 63.44000000000001 28.4 L 63.44000000000001 10.16 L 67.76000000000002 10.16 L 67.76000000000002 28.4 Q 67.76000000000002 32.239999999999995 70.12000000000002 34.28 Q 72.48000000000002 36.32000000000001 76.84000000000002 36.32 Q 81.20000000000002 36.31999999999999 83.56000000000002 34.28 Q 85.92000000000002 32.24000000000001 85.92000000000002 28.400000000000002 L 85.92000000000002 10.160000000000004 L 90.24000000000001 10.160000000000004 L 90.24000000000001 28.400000000000002 Q 90.24000000000001 32.24 88.66000000000001 35 Q 87.08000000000001 37.76 84.06000000000002 39.22 Q 81.04000000000002 40.68 76.84000000000002 40.68 z M 99.52000000000001 14.36 L 96.04 10.16 L 101.68 10.16 L 120.84 32.96 L 120.84 10.16 L 125.24000000000001 10.16 L 125.24000000000001 40 L 120.92000000000002 40 L 103.80000000000001 19.48 L 103.80000000000001 40 L 99.52000000000001 40 L 99.52000000000001 14.36 z M 156.24 14.559999999999999 L 145.72 14.559999999999999 L 145.72 40 L 141.48 40 L 141.48 14.559999999999999 L 130.83999999999997 14.559999999999999 L 130.83999999999997 10.159999999999998 L 156.23999999999998 10.159999999999998 L 156.23999999999998 14.559999999999999 z M 166.12000000000003 40 L 161.84000000000003 40 L 161.84000000000003 10.16 L 166.12000000000003 10.16 L 166.12000000000003 40 z M 175.80000000000004 14.36 L 172.32000000000005 10.16 L 177.96000000000004 10.16 L 197.12000000000003 32.96 L 197.12000000000003 10.16 L 201.52000000000004 10.16 L 201.52000000000004 40 L 197.20000000000005 40 L 180.08000000000004 19.48 L 180.08000000000004 40 L 175.80000000000004 40 L 175.80000000000004 14.36 z M 235.88000000000005 14 L 233.08000000000004 17.28 Q 231.44000000000005 15.600000000000001 229.16000000000005 14.64 Q 226.88000000000005 13.68 224.36000000000004 13.68 Q 221.08000000000004 13.68 218.38000000000005 15.16 Q 215.68000000000006 16.64 214.16000000000005 19.2 Q 212.60000000000005 21.88 212.60000000000005 25.16 Q 212.60000000000005 28.28 214.28000000000006 30.92 Q 215.88000000000005 33.4 218.58000000000007 34.86 Q 221.2800000000001 36.32 224.40000000000006 36.32 Q 226.60000000000005 36.32 228.62000000000006 35.56 Q 230.64000000000007 34.800000000000004 232.24000000000007 33.440000000000005 L 232.24000000000007 28.000000000000004 L 228.40000000000006 28.000000000000004 L 226.52000000000007 23.680000000000003 L 236.56000000000006 23.680000000000003 L 236.56000000000006 35.28 Q 234.28000000000006 37.84 231.10000000000005 39.26 Q 227.92000000000004 40.67999999999999 224.36000000000004 40.68 Q 219.92000000000004 40.68 216.20000000000005 38.519999999999996 Q 212.56000000000006 36.44 210.48000000000005 32.8 Q 208.32000000000005 29.08 208.32000000000005 24.639999999999997 Q 208.32000000000005 20.359999999999996 210.60000000000005 16.759999999999998 Q 212.76000000000005 13.319999999999999 216.46000000000006 11.299999999999997 Q 220.16000000000008 9.279999999999996 224.40000000000006 9.279999999999998 Q 227.72000000000006 9.279999999999998 230.72000000000006 10.559999999999997 Q 233.64000000000004 11.759999999999996 235.88000000000005 13.999999999999996 z" stroke-linecap="round" />
</g>
		<g transform="matrix(0.97 0 0 0.97 32.2 12.62)"  >
<path style="stroke: none; stroke-width: 1; stroke-dasharray: none; stroke-linecap: butt; stroke-dashoffset: 0; stroke-linejoin: miter; stroke-miterlimit: 4; fill: rgb(244,114,182); fill-rule: nonzero; opacity: 1;" vector-effect="non-scaling-stroke"  transform=" translate(-77.06, -25.16)" d="M 22.6 10.16 L 22.6 28.2 Q 22.6 32.519999999999996 20.720000000000002 35.519999999999996 Q 19.080000000000002 38.12 16.240000000000002 39.48 Q 13.760000000000002 40.68 10.96 40.68 Q 8.280000000000001 40.68 5.5200000000000005 39.76 Q 2.6400000000000006 38.76 0.8000000000000007 37.16 L 3.000000000000001 33.31999999999999 L 3.480000000000001 33.79999999999999 Q 4.120000000000001 34.35999999999999 4.960000000000001 34.83999999999999 Q 6.080000000000001 35.51999999999999 7.440000000000001 35.87999999999999 Q 9.120000000000001 36.359999999999985 11.000000000000002 36.359999999999985 Q 13.040000000000003 36.359999999999985 14.560000000000002 35.47999999999998 Q 15.840000000000002 34.759999999999984 16.720000000000002 33.43999999999998 Q 17.44 32.399999999999984 17.840000000000003 30.999999999999982 Q 18.120000000000005 29.999999999999982 18.240000000000002 28.959999999999983 L 18.28 28.079999999999984 L 18.28 14.559999999999985 L 11.920000000000002 14.559999999999985 L 10.000000000000002 10.159999999999984 L 22.6 10.159999999999984 z M 40.72 13.32 L 39.08 9.64 L 43.879999999999995 9.64 L 58.239999999999995 40 L 53.35999999999999 40 L 51.39999999999999 35.64 L 42.31999999999999 35.64 Q 39.75999999999999 35.64 37.71999999999999 36.12 Q 35.919999999999995 36.559999999999995 34.71999999999999 37.279999999999994 Q 33.63999999999999 37.919999999999995 33.279999999999994 38.599999999999994 L 32.519999999999996 39.99999999999999 L 27.799999999999997 39.99999999999999 z M 43.92 31.240000000000002 L 49.44 31.240000000000002 L 42.92 18.64 L 36.32 32.92 Q 37.2 32.160000000000004 39 31.720000000000002 Q 41.04 31.240000000000002 43.92 31.240000000000002 z M 73.88 22.92 L 79.16 22.92 Q 83.56 22.92 83.56 18.68 Q 83.56 16.48 82.46000000000001 15.5 Q 81.36000000000001 14.52 79.16000000000001 14.52 L 68.20000000000002 14.52 L 68.20000000000002 24.119999999999997 Q 69.44000000000001 23.4 71.00000000000001 23.119999999999997 Q 72.16000000000001 22.919999999999998 73.88000000000001 22.919999999999998 z M 68.2 40 L 63.84 40 L 63.84 10.16 L 79.16 10.16 Q 81.8 10.16 83.75999999999999 11.18 Q 85.71999999999998 12.2 86.8 14.12 Q 87.88000000000001 16.04 87.88 18.66 Q 87.87999999999998 21.28 86.8 23.240000000000002 Q 85.72000000000001 25.200000000000003 83.74 26.26 Q 81.75999999999998 27.32 79.16 27.32 L 73.88 27.32 Q 70.44 27.32 68.19999999999999 28.52 L 68.19999999999999 40 z M 103.6 13.32 L 101.96 9.64 L 106.75999999999999 9.64 L 121.11999999999999 40 L 116.24 40 L 114.28 35.64 L 105.2 35.64 Q 102.64 35.64 100.60000000000001 36.12 Q 98.80000000000001 36.559999999999995 97.60000000000001 37.279999999999994 Q 96.52000000000001 37.919999999999995 96.16000000000001 38.599999999999994 L 95.4 39.99999999999999 L 90.68 39.99999999999999 z M 106.8 31.240000000000002 L 112.32 31.240000000000002 L 105.8 18.64 L 99.2 32.92 Q 100.08 32.160000000000004 101.88000000000001 31.720000000000002 Q 103.92000000000002 31.240000000000002 106.80000000000001 31.240000000000002 z M 127.6 14.36 L 124.11999999999999 10.16 L 129.76 10.16 L 148.92 32.96 L 148.92 10.16 L 153.32 10.16 L 153.32 40 L 149 40 L 131.88 19.48 L 131.88 40 L 127.6 40 L 127.6 14.36 z" stroke-linecap="round" />
</g>
</g>
</g>
</svg>